<svg width="800" height="734" viewBox="0 0 800 734" fill="none" xmlns="http://www.w3.org/2000/svg">
<path d="M348.504 2.48C349.604 1.91 351.854 1.12 353.504 0.72C355.153 0.32 367.303 0 380.502 0C393.701 0 412.539 0.29 440.227 1.29L444.357 5.88C447.057 8.88 453.946 21.02 464.195 40.88C472.835 57.61 492.113 96.04 507.052 126.29C521.981 156.54 550.179 213.69 569.697 253.29C589.216 292.89 608.574 332.49 612.704 341.29C616.834 350.09 620.724 359.63 621.354 362.48C621.973 365.33 622.253 367.87 621.983 368.11C621.713 368.36 595.385 368.86 505.492 369.88L502.622 366.58C501.052 364.77 496.183 356.54 491.803 348.29C487.424 340.04 466.265 298.42 444.797 255.79C423.318 213.17 401.75 170.53 396.87 161.04C391.991 151.55 387.661 143.78 387.251 143.78C386.841 143.77 385.881 145.46 385.121 147.53C384.361 149.6 380.802 157.36 377.222 164.79C373.642 172.22 362.853 194.72 353.254 214.79C343.654 234.86 330.845 261.86 324.796 274.79C318.736 287.72 305.347 316.06 295.028 337.79C284.709 359.52 268.83 393.04 259.741 412.29C250.651 431.54 235.462 463.72 225.983 483.79C216.514 503.86 206.535 525.46 203.815 531.79C201.095 538.12 197.535 547.79 195.905 553.29C194.276 558.79 192.196 567.56 191.296 572.79C190.136 579.44 189.636 588.44 189.606 602.79C189.566 619.32 189.916 624.84 191.406 631.29C192.426 635.69 194.825 643.79 196.745 649.29C198.665 654.79 202.165 663.12 204.535 667.79C206.895 672.46 211.054 679.44 213.784 683.29C216.504 687.14 220.934 692.73 223.623 695.71C226.313 698.69 231.903 703.86 236.042 707.21C240.182 710.55 249.741 717.23 257.291 722.04C264.83 726.85 271.01 731.24 271.01 731.79C271.01 732.42 259.851 733.02 240.762 733.41C224.123 733.74 167.098 733.76 114.022 733.45C56.8558 733.11 14.879 732.47 11.0292 731.86C6.53958 731.16 3.82979 730.15 2.2499 728.57C0.999999 727.32 -0.00992563 725.5 7.3616e-05 724.54C0.0200721 723.58 1.21998 719.75 2.66987 716.04C4.12976 712.33 12.0592 695.34 20.2886 678.29C28.5279 661.24 38.7472 639.87 43.0168 630.79C47.2765 621.71 62.1354 590.89 76.0244 562.29C89.9133 533.69 106.342 499.72 112.542 486.79C118.731 473.86 130.41 449.56 138.5 432.79C146.599 416.02 160.878 386.31 170.237 366.79C179.597 347.27 194.236 316.89 202.755 299.29C211.284 281.69 227.703 247.72 239.252 223.79C250.791 199.86 266.21 167.92 273.5 152.79C280.799 137.67 292.948 112.47 300.498 96.79C308.057 81.11 320.066 55.92 327.176 40.79C334.295 25.67 341.554 11.09 343.314 8.41C345.064 5.72 347.404 3.05 348.504 2.48Z" fill="#4D338B"/>
<path d="M580.487 428.34C581.586 427.9 585.186 427.21 588.486 426.8C591.786 426.4 605.285 426.01 618.484 425.95C631.683 425.89 644.282 426.27 646.482 426.79C648.681 427.31 651.691 428.99 653.161 430.51C654.631 432.04 658.601 438.24 661.98 444.29C665.35 450.34 693.868 506.81 725.336 569.79C756.803 632.77 786.501 692.84 791.331 703.29C797.46 716.56 800.01 723.18 799.79 725.24C799.57 727.26 798.52 728.77 796.47 730C794.071 731.45 789.861 732 775.472 732.77C765.573 733.3 739.245 733.74 716.976 733.75C694.708 733.77 664.67 733.33 650.231 732.78C632.853 732.13 622.883 731.34 620.734 730.46C618.944 729.73 615.744 727.15 613.624 724.71C611.494 722.28 606.835 714.89 603.255 708.29C599.685 701.69 580.637 664.34 560.928 625.29C541.219 586.24 522.771 548.89 519.931 542.29C516.661 534.68 514.582 528.28 514.252 524.79C513.852 520.52 514.182 518.4 515.741 515.29C516.851 513.09 523.801 501.61 531.19 489.79C538.58 477.96 547.749 463.12 551.559 456.8C555.368 450.48 560.738 443.09 563.488 440.37C566.238 437.65 570.737 434.01 573.487 432.28C576.237 430.55 579.387 428.77 580.487 428.34Z" fill="#4D338B"/>
</svg>
