<svg width="1984" height="598" viewBox="0 0 1984 598" fill="none" xmlns="http://www.w3.org/2000/svg">
<path d="M1699.1 393.79C1714.72 393.97 1723.17 394.44 1724.1 395.19C1724.87 395.81 1726.51 396.6 1727.75 396.94C1728.99 397.28 1732.81 400.28 1736.25 403.589C1739.69 406.909 1742.84 409.609 1743.25 409.589C1743.66 409.579 1744.11 406.07 1744.5 394.06L1758 393.77C1765.43 393.61 1772.51 393.73 1776 394.56L1775.75 475.31C1775.52 550.47 1775.38 556.23 1773.74 558.56C1772.78 559.94 1772.22 561.28 1772.5 561.56C1772.78 561.841 1772.38 563.641 1771.61 565.56C1770.84 567.49 1765.96 573.34 1760.75 578.56C1753.54 585.8 1749.29 589.13 1734.5 597.06L1702.5 597.31C1670.96 597.56 1670.45 597.529 1667 595.339C1665.07 594.119 1662.6 592.31 1661.5 591.32C1660.4 590.33 1659.16 589.53 1658.75 589.54C1658.34 589.55 1656.33 588.1 1654.29 586.31C1652.24 584.52 1648.31 580.78 1645.54 577.99C1642.77 575.2 1639.55 571.82 1638.38 570.49C1636.87 568.75 1635.95 565.65 1635.15 559.56C1634.54 554.89 1634.14 550.919 1634.27 550.759C1634.41 550.589 1640.58 550.19 1648 549.86C1655.43 549.53 1662.74 549.55 1664.25 549.91C1666.14 550.36 1667.47 551.66 1668.5 554.06C1669.32 555.99 1671.24 558.81 1672.75 560.33C1674.26 561.86 1678.31 564.56 1681.75 566.33C1685.19 568.11 1688.56 569.569 1689.25 569.589C1689.94 569.599 1691.33 570.39 1692.35 571.339C1693.83 572.709 1695.98 573.04 1702.85 572.98C1709.72 572.92 1712.53 572.43 1716.5 570.57C1719.25 569.28 1721.72 568.159 1722 568.089C1722.28 568.019 1724.53 567.02 1727 565.87C1729.47 564.72 1733.2 562.05 1735.28 559.92C1737.36 557.8 1738.83 555.841 1738.54 555.56C1738.25 555.28 1738.42 554.61 1738.91 554.06C1739.41 553.51 1740.08 550.7 1740.4 547.81C1740.73 544.921 1741.32 542.001 1741.72 541.31C1742.12 540.62 1742.6 539.39 1742.78 538.56C1742.96 537.74 1743.38 533.91 1743.7 530.06C1744.2 524.17 1744.03 522.94 1742.64 522.31C1741.71 521.89 1741 521.99 1741 522.56C1741 523.11 1739.31 524.31 1737.25 525.24C1735.19 526.16 1733.05 527.289 1732.5 527.759C1731.95 528.219 1730.15 529.699 1728.5 531.049C1726.85 532.399 1723.7 533.779 1721.5 534.129C1719.3 534.47 1716.49 535.38 1715.25 536.16C1713.57 537.2 1709.11 537.56 1697.75 537.56C1684.84 537.56 1681.66 537.249 1677 535.509C1673.97 534.379 1669.93 532.769 1668 531.92C1666.07 531.079 1662.09 529.189 1659.15 527.719C1656.21 526.259 1652.11 523.49 1650.05 521.56C1647.98 519.64 1644.11 514.69 1641.44 510.56C1638.77 506.44 1635.56 501.15 1634.29 498.81C1633.03 496.47 1632 492.99 1632 491.06C1632 489.03 1631.26 486.849 1630.25 485.879C1628.74 484.429 1628.48 481.979 1628.34 467.629C1628.21 454.361 1628.47 450.76 1629.63 449.56C1630.42 448.74 1630.98 447.39 1630.87 446.56C1630.76 445.74 1631.04 443.26 1631.49 441.06C1631.95 438.86 1633.42 434.59 1634.75 431.56C1636.09 428.53 1639.03 423.36 1641.28 420.06C1643.53 416.76 1646.4 413.051 1647.64 411.81C1648.89 410.57 1650.15 409.56 1650.45 409.56C1650.75 409.559 1653.07 408.1 1655.6 406.31C1658.14 404.52 1663.65 400.91 1667.85 398.29L1675.5 393.509L1699.1 393.79ZM1283 394.2C1283.82 393.9 1296.42 393.75 1311 393.86C1333.46 394.03 1338.03 394.32 1341 395.74C1342.92 396.66 1345.17 397.679 1346 398.009C1346.82 398.329 1349.3 399.7 1351.5 401.04C1353.7 402.39 1356.96 404.18 1358.75 405.02C1360.54 405.87 1362 407.01 1362 407.56C1362 408.11 1362.56 408.55 1363.25 408.53C1363.94 408.51 1367.09 410.99 1370.25 414.03C1373.41 417.07 1376 420.24 1376 421.06C1376 421.89 1376.67 422.78 1377.5 423.06C1378.32 423.34 1379.22 424.46 1379.5 425.56C1379.78 426.66 1380.59 428.12 1381.32 428.81C1382.05 429.501 1383.79 432.311 1385.2 435.06C1386.6 437.81 1388.09 441.86 1388.5 444.06C1388.92 446.26 1389.76 448.689 1390.38 449.46C1391.11 450.38 1391.48 456.78 1391.45 467.96C1391.43 477.37 1391.31 486.75 1391.2 488.81C1391.09 490.87 1390.55 492.78 1390 493.06C1389.45 493.34 1389 494.69 1389 496.06C1389 497.44 1387.86 501.15 1386.46 504.31C1385.07 507.469 1383.61 510.559 1383.21 511.179C1382.82 511.789 1380.41 515.389 1377.85 519.179C1375.29 522.959 1371.55 527.64 1369.53 529.56C1367.52 531.49 1364.11 533.96 1361.95 535.06C1359.79 536.16 1355.43 538.34 1352.26 539.9C1349.09 541.47 1345.37 543.32 1344 544.02C1342.62 544.73 1339.92 545.57 1338 545.91C1336.07 546.24 1332.92 547.26 1331 548.16C1328.01 549.57 1324.53 549.76 1307.3 549.44C1292.78 549.17 1286.73 548.7 1285.8 547.79C1285.08 547.1 1283.6 546.53 1282.5 546.53C1281.4 546.53 1278.7 545.68 1276.5 544.65C1274.3 543.61 1270.92 542.28 1269 541.7C1267.07 541.12 1264.34 539.61 1262.93 538.35C1261.51 537.09 1257.69 534.26 1254.43 532.06C1251.17 529.86 1247.6 527.16 1246.5 526.06C1245.4 524.95 1242.7 521.35 1240.5 518.06C1238.3 514.76 1235.54 510.03 1234.36 507.56C1233.18 505.09 1231.88 501.26 1231.48 499.06C1231.07 496.86 1230.24 494.43 1229.62 493.66C1228.89 492.74 1228.4 484.42 1228.22 469.66C1227.97 450.141 1228.15 446.86 1229.51 445.56C1230.38 444.74 1231.07 442.94 1231.05 441.56C1231.03 440.19 1232.47 436.15 1234.25 432.6C1236.5 428.14 1240.28 423.36 1246.51 417.1C1251.47 412.131 1256.87 407.141 1258.51 406.02C1260.16 404.9 1264.42 402.59 1268 400.89C1271.57 399.18 1276.07 397.099 1278 396.259C1279.92 395.419 1282.17 394.5 1283 394.2ZM1515.5 394.19C1516.6 393.93 1528.3 393.809 1541.5 393.929C1561.84 394.119 1566.11 394.42 1569.5 395.9C1571.7 396.87 1575.3 398.54 1577.5 399.62C1579.7 400.7 1582.74 402.71 1584.25 404.07C1585.76 405.44 1587.22 406.56 1587.5 406.56C1587.78 406.56 1588.99 407.35 1590.21 408.31C1591.43 409.27 1595.14 412.87 1598.46 416.299C1601.78 419.729 1605.99 424.899 1607.8 427.799C1609.62 430.689 1611.59 434.64 1612.18 436.56C1612.76 438.49 1613.64 440.85 1614.12 441.81C1614.61 442.771 1615.72 448.621 1616.6 454.81C1617.48 461 1618.44 468.31 1618.72 471.06C1619.04 474.18 1618.75 477 1617.94 478.56C1617.22 479.94 1616.52 482.19 1616.38 483.56C1616.24 484.94 1615.83 488.53 1615.46 491.56C1615.1 494.59 1614.39 497.28 1613.89 497.56C1613.39 497.841 1612.84 499.191 1612.67 500.56C1612.49 501.94 1611.96 504.41 1611.49 506.06C1611.01 507.71 1609.59 510.86 1608.34 513.06L1608.26 513.208C1607.01 515.399 1605.28 518.447 1604.37 520.06C1603.44 521.71 1602 523.74 1601.18 524.56C1600.36 525.39 1598.52 527.57 1597.09 529.429C1595.67 531.279 1593.04 533.409 1591.25 534.179C1589.46 534.939 1586.54 536.91 1584.75 538.56C1582.96 540.2 1580.71 541.55 1579.75 541.56C1578.79 541.56 1576.54 542.3 1574.75 543.2C1572.96 544.11 1570.71 545.23 1569.75 545.7C1568.79 546.17 1567.29 546.56 1566.43 546.56C1565.56 546.56 1564.18 547.24 1563.36 548.06C1562.12 549.3 1558.11 549.56 1540.18 549.57C1523.48 549.57 1518.04 549.26 1516.5 548.21C1515.4 547.46 1512.13 546.22 1509.24 545.45C1506.34 544.69 1503.99 543.841 1504.01 543.56C1504.03 543.28 1502.23 542.39 1500 541.56C1497.77 540.74 1495.96 539.72 1495.98 539.31C1495.99 538.9 1494.93 538 1493.63 537.31C1492.32 536.62 1489.73 535.219 1487.88 534.179C1486.02 533.149 1482.57 530.229 1480.21 527.679C1477.86 525.14 1475.94 522.721 1475.96 522.31C1475.98 521.9 1474.51 519.2 1472.69 516.31C1470.88 513.42 1468.58 508.36 1467.59 505.06C1466.6 501.76 1465.42 496.81 1464.97 494.06C1464.51 491.31 1464.12 480.28 1464.1 469.56C1464.07 458.841 1464.52 448.261 1465.09 446.06C1465.67 443.86 1466.25 441.391 1466.38 440.56C1466.51 439.74 1467.34 437.71 1468.23 436.06C1469 434.619 1470.28 432.224 1471.26 430.381L1471.67 429.62C1472.68 427.72 1475.75 423.64 1478.5 420.53C1481.25 417.43 1484.4 413.78 1485.5 412.41C1486.6 411.05 1489.3 408.61 1491.5 406.99C1493.7 405.38 1495.96 403.61 1496.52 403.06C1497.08 402.51 1500.23 400.78 1503.52 399.21C1506.81 397.64 1510.4 395.969 1511.5 395.509C1512.6 395.039 1514.4 394.45 1515.5 394.19ZM1796.52 394.21C1796.99 393.83 1805.06 393.64 1831.5 394.07L1832 549.57H1799L1798.53 543.32C1798.28 539.88 1797.6 519.97 1797.02 499.07C1796.44 478.17 1795.9 446.18 1795.82 427.98C1795.73 409.79 1796.05 394.59 1796.52 394.21ZM951 394.19C951.82 393.88 962.85 393.73 975.5 393.85C991.44 393.99 999.11 394.43 1000.5 395.27C1001.6 395.94 1004.53 397.39 1007 398.49C1009.47 399.58 1015.1 402.96 1019.5 405.98C1025.46 410.08 1029.09 413.59 1033.77 419.77C1037.48 424.67 1040.29 429.49 1040.66 431.56C1041 433.49 1041.9 435.96 1042.65 437.06C1043.4 438.16 1044.01 439.62 1044.01 440.31C1044 441.26 1039.73 441.56 1008 441.56L1005.5 438.31C1004.13 436.52 1001.54 433.58 999.75 431.77C997.96 429.96 995.04 427.82 993.25 427.02C991.46 426.22 988.54 425.57 986.75 425.58C984.96 425.59 981.47 424.91 979 424.06C976.53 423.22 973.6 422.84 972.5 423.21C971.4 423.59 969.82 423.98 969 424.08C968.17 424.19 966.37 424.54 965 424.86C963.62 425.19 960.36 425.699 957.75 426.009C953.56 426.489 952.16 427.36 945.96 433.31C942.09 437.02 938.94 440.4 938.96 440.81C938.979 441.221 937.87 443.361 936.5 445.56C935.12 447.76 934.34 449.77 934.75 450.04C935.16 450.3 934.82 451.27 934 452.19C932.8 453.53 932.5 457.07 932.5 469.96C932.5 484.58 932.711 486.52 934.771 491.06C936.03 493.81 937.5 496.74 938.04 497.56C938.59 498.39 939.75 500.64 940.62 502.56C941.49 504.49 943.85 507.579 945.85 509.429C947.86 511.279 950.4 513.209 951.5 513.719C952.6 514.229 954.62 515.32 956 516.14C958.03 517.35 961.99 517.58 976.92 517.35C990.608 517.13 995.419 516.74 995.67 515.81C995.85 515.12 996.67 514.56 997.5 514.56C998.32 514.56 1000.25 513.1 1001.78 511.31C1003.31 509.52 1005.68 505.689 1009.5 497.509L1025.5 497.549C1034.3 497.569 1042.17 498.01 1043 498.52C1044.1 499.2 1044.34 500.46 1043.9 503.25C1043.58 505.35 1041.42 510.89 1039.1 515.56C1036.68 520.44 1032.89 526.12 1030.2 528.9C1027.61 531.56 1024.6 534.15 1023.5 534.65C1022.4 535.15 1020.64 536.12 1019.58 536.81C1018.52 537.5 1016.95 538.64 1016.08 539.35C1015.21 540.06 1011.57 541.96 1008 543.57C1004.42 545.18 1000.71 546.52 999.75 546.53C998.79 546.55 996.54 547.29 994.75 548.19C992 549.56 988.55 549.75 972.4 549.44C959.912 549.19 952.822 548.66 951.9 547.9C951.13 547.26 948.7 546.4 946.5 545.99C944.3 545.57 940.25 544.11 937.5 542.73C934.75 541.35 931.16 539.29 929.53 538.14C927.891 537 925.981 535.5 925.28 534.81C924.57 534.12 923.55 533.56 923 533.56C922.45 533.56 920.09 531.57 917.75 529.14C915.41 526.71 912.15 522.63 910.5 520.07C908.85 517.52 906.49 513.54 905.26 511.24C904.03 508.94 903.021 506.391 903.03 505.56C903.03 504.74 902.58 503.61 902.03 503.06C901.47 502.51 900.48 498.01 899.82 493.06C899.161 488.112 898.221 483.843 897.73 483.56C897.24 483.28 896.59 478.78 896.28 473.56C895.86 466.451 896.06 463.43 897.1 461.56C897.869 460.19 898.519 458.611 898.56 458.06C898.6 457.51 899.22 453.69 899.93 449.56C900.65 445.44 901.57 441.61 901.98 441.06C902.4 440.51 903.32 438.26 904.03 436.06C904.74 433.86 907.16 428.99 909.41 425.23C911.66 421.47 914.85 416.96 916.5 415.2C918.15 413.44 922.2 410.239 925.5 408.089C928.8 405.95 931.719 403.91 932 403.57C932.28 403.23 934.07 402.18 936 401.23C937.92 400.28 940.17 399.09 941 398.58C941.82 398.07 944.07 397 946 396.2C947.92 395.4 950.17 394.49 951 394.19ZM1892 394.429C1893.37 394.009 1906.87 393.76 1949.5 394.1L1954.95 397.08C1957.94 398.72 1964.36 404 1969.2 408.82C1974.04 413.63 1978 418.24 1978 419.07C1978 419.89 1978.33 420.55 1978.75 420.54C1979.16 420.53 1980.5 422.44 1983.96 429.07L1983.5 549.07H1952.5L1952.25 541.32C1952.07 535.91 1951.62 533.57 1950.75 533.58C1950.06 533.59 1947.92 535.14 1946 537.03C1944.07 538.92 1940.36 541.61 1937.75 543.02C1935.13 544.42 1932.21 545.58 1931.25 545.6C1930.28 545.62 1927.7 546.5 1925.5 547.57C1921.98 549.27 1919.21 549.5 1883.5 549.52L1874 544.9C1867.07 541.54 1863 538.769 1858.98 534.679C1855.95 531.589 1852.35 527.27 1850.98 525.07C1848.73 521.45 1848.46 519.83 1848.13 508.07C1847.92 500.5 1848.25 492.98 1848.91 490.07C1849.54 487.32 1850.18 484.62 1850.33 484.07C1850.48 483.52 1851.33 481.72 1852.22 480.07C1853.11 478.42 1856.24 474.74 1859.17 471.89C1863.31 467.87 1865.78 466.37 1870.25 465.14C1873.41 464.27 1876.18 463.23 1876.4 462.82C1876.62 462.4 1878.75 461.91 1881.15 461.73C1883.54 461.55 1886.51 460.98 1887.75 460.48C1888.98 459.98 1890 459.79 1890 460.07C1890 460.34 1891.01 459.99 1892.25 459.28C1893.85 458.36 1901.1 457.909 1917.5 457.679C1930.15 457.509 1941.17 457.14 1942 456.86C1942.82 456.58 1944.85 455.77 1946.5 455.06C1948.15 454.35 1950.17 452.989 1951 452.049C1952.04 450.869 1952.31 449.23 1951.88 446.7C1951.54 444.7 1949.75 440.59 1947.91 437.57C1946.06 434.54 1943.63 431.14 1942.52 430C1941.41 428.86 1937.57 426.51 1934 424.78C1928.25 421.99 1926.49 421.62 1918.75 421.6C1913.93 421.58 1907.97 422.02 1905.5 422.57C1903.02 423.12 1901 424.02 1901 424.57C1901 425.12 1900.21 425.579 1899.25 425.589C1898.28 425.609 1895.67 427.52 1893.44 429.839C1891.21 432.159 1888.85 435.75 1887 441.57H1870C1855.77 441.57 1852.91 441.32 1852.5 440.07C1852.22 439.24 1851.99 437.78 1851.98 436.82C1851.97 435.85 1852.53 434.48 1853.23 433.77C1853.93 433.05 1854.54 432.15 1854.59 431.77C1854.64 431.38 1855.48 429.27 1856.46 427.07C1857.45 424.87 1859.4 421.49 1860.81 419.57C1862.21 417.64 1866.32 412.999 1869.93 409.25C1873.67 405.36 1879.29 400.88 1883 398.81C1886.57 396.82 1890.62 394.849 1892 394.429ZM787.5 394.19C788.6 393.92 799.4 393.82 811.5 393.96C830.38 394.17 834.14 394.47 838 396.08C840.47 397.11 843.62 398.78 845 399.79C846.37 400.8 847.84 401.609 848.25 401.589C848.66 401.579 851.14 402.99 853.75 404.73C856.36 406.47 860.3 409.31 862.5 411.04C864.7 412.77 867.96 416.74 869.75 419.87C871.54 423 873.34 425.55 873.75 425.54C874.16 425.52 875.48 427.66 876.68 430.29C877.88 432.91 879.41 437.99 880.08 441.56C880.74 445.139 881.78 448.688 882.39 449.469C883.07 450.319 883.6 456.9 884 481.56H769L769.55 483.81C769.85 485.05 770.75 488.42 771.55 491.31C772.35 494.2 773.84 498.25 774.87 500.31C775.9 502.37 778.52 505.86 780.7 508.06C782.87 510.26 788.6 514.091 802.18 521.06H814.63C822.22 521.06 827.35 520.649 827.79 520.009C828.181 519.429 830.07 518.209 832 517.299C833.92 516.389 837.75 513.599 840.5 511.089C843.25 508.589 846.62 506.299 848 506.009C849.37 505.719 852.75 504.729 855.5 503.799C858.79 502.689 863.81 502.109 870.16 502.089C875.48 502.069 880.2 502.389 880.66 502.799C881.12 503.209 880.86 505.009 880.09 506.799C879.31 508.589 878.07 510.74 877.33 511.56C876.6 512.39 876.24 513.28 876.54 513.56C876.84 513.841 876.47 515.641 875.72 517.56C874.969 519.491 870.33 525.11 865.42 530.06C860.51 535.01 854.02 540.46 850.99 542.16C847.97 543.87 843.7 545.88 841.5 546.64C839.3 547.39 836.6 548.199 835.5 548.429C834.4 548.659 824.05 549.03 812.5 549.25C793.92 549.59 791.05 549.43 787.58 547.85C785.43 546.87 779.58 544.01 774.58 541.5C767.69 538.04 763.68 535.14 757.97 529.5C753.82 525.41 749.11 519.81 747.49 517.06C745.87 514.31 743.59 509.14 742.41 505.56C741.23 501.99 739.92 495.91 739.49 492.06C739.05 488.211 738.02 483.711 737.19 482.06C735.99 479.68 735.81 476.9 736.31 468.56C736.659 462.781 737.35 457.612 737.84 457.06C738.33 456.51 739.25 452.01 739.89 447.06C740.53 442.11 741.61 437.48 742.28 436.77C742.95 436.05 743.16 435.49 742.75 435.52C742.34 435.54 742.88 434.1 743.96 432.31C745.03 430.52 746.72 427.49 747.69 425.56C748.67 423.64 753.08 418.419 757.48 413.969C761.89 409.529 766.8 405.029 768.4 403.969C769.99 402.919 772.471 401.28 773.9 400.32C775.33 399.37 777.62 398.119 779 397.549C780.37 396.979 782.4 396.099 783.5 395.589C784.6 395.079 786.4 394.45 787.5 394.19ZM688 393.56H732L731.53 406.81C731.27 414.1 730.93 421.19 730.5 425.06L688 425.56L688.28 459.81C688.47 482.68 688.94 494.89 689.7 496.56C690.32 497.94 691.34 501.09 691.95 503.56C692.57 506.03 694.07 509.199 695.29 510.589C696.5 511.969 698.85 513.979 700.5 515.049C703.01 516.669 705.67 517.03 716.75 517.27C729.55 517.55 730.02 517.64 730.54 519.81C730.83 521.051 730.95 528.142 730.5 549.06L718 549.35C711.12 549.51 703.03 549.2 700 548.66C696.97 548.12 691.57 547.059 688 546.299C684.42 545.539 679.47 543.869 677 542.589C674.53 541.319 670.71 538.419 668.521 536.17C666.331 533.91 662.61 529.14 655.94 519.06L656 425.56H628L628.5 394.06L656 393.56L655.83 374.23C655.74 363.591 656.04 354.592 656.5 354.23C656.96 353.86 664.23 353.56 688 353.56V393.56ZM435.5 317.5C437.7 317.09 449.46 316.81 483.78 317.06L485.86 319.56C487 320.94 487.95 322.62 487.97 323.31C487.99 324 488.63 324.9 489.41 325.31C490.18 325.721 492.32 329.05 494.16 332.7C496 336.35 502.75 349.63 509.16 362.2C515.57 374.77 523.6 390.69 527.01 397.56C530.42 404.44 533.69 410.96 534.28 412.06C534.871 413.162 540.231 423.742 546.2 435.56C552.16 447.39 557.031 457.62 557.021 458.31C557.011 459 557.36 459.67 557.8 459.81C558.24 459.95 560.08 463.21 561.9 467.06C563.711 470.911 569.491 482.841 574.73 493.56C579.97 504.28 584.65 513.74 585.13 514.56C585.62 515.39 586.54 517.19 587.19 518.56C587.831 519.941 589.84 524.211 591.66 528.06C593.52 532.02 594.96 536.69 594.98 538.81C594.99 540.87 594.44 542.88 593.75 543.28C593.06 543.68 591.82 544.19 591 544.41C590.17 544.63 582.3 545.27 573.5 545.83C563.03 546.49 540.84 546.53 461.09 545.06L456.93 541.06C454.64 538.86 452.14 535.71 451.37 534.06C450.6 532.41 449.56 530.39 449.07 529.56C448.57 528.74 446.95 525.59 445.47 522.56C443.99 519.53 442.16 516.391 441.41 515.56C440.66 514.74 440.03 513.61 440.01 513.06C439.98 512.51 438.35 508.91 436.38 505.06C434.41 501.21 422.3 477.14 409.45 451.56C396.611 425.991 384.96 402.021 383.55 398.31C382.15 394.601 380.991 390.551 380.98 389.31C380.97 388.07 381.98 385.03 383.23 382.56C384.48 380.08 386.96 375.92 388.75 373.31C390.539 370.701 391.999 368.342 392 368.06C392 367.78 393.56 365.42 395.47 362.81C397.369 360.201 398.949 357.721 398.97 357.31C398.98 356.9 400.35 354.53 402 352.06C403.546 349.745 404.829 347.623 404.984 347.135L405.016 346.985C405.17 346.499 406.453 344.376 408 342.06C409.65 339.591 410.999 337.111 411 336.56C411 336.01 414.26 332.22 418.25 328.14C422.24 324.06 426.85 320.17 428.5 319.49C430.15 318.82 433.3 317.92 435.5 317.5ZM329.64 3.31014C331.36 4.82014 333.05 7.07014 333.39 8.31014C333.72 9.55002 334.45 10.5601 335 10.5601C335.55 10.5601 345.96 30.7001 358.12 55.3101C370.29 79.92 380.63 100.74 381.09 101.56C381.55 102.391 383.34 105.99 385.06 109.56C386.78 113.14 388.58 116.74 389.05 117.56C389.521 118.392 394.261 127.841 399.58 138.56C404.9 149.29 414.42 168.64 420.75 181.56C427.08 194.49 432.65 205.74 433.13 206.56C433.62 207.39 434.51 209.19 435.11 210.56C435.72 211.94 436.62 213.74 437.13 214.56C437.63 215.39 438.76 217.64 439.63 219.56C440.51 221.491 445.241 231.161 450.15 241.06C455.06 250.96 460 261.76 461.13 265.06C462.26 268.36 463.03 271.96 462.84 273.06C462.51 275.02 461.597 275.07 419.5 275.35C378.66 275.63 376.37 275.549 374 273.759C372.62 272.719 369.49 267.859 367.04 262.96C364.58 258.07 361.24 251.81 359.62 249.06C357.99 246.31 343.43 217.74 327.26 185.56C311.081 153.393 297.492 126.615 297.05 126.06C296.61 125.51 295.91 123.94 295.5 122.56C295.1 121.19 294.2 119.39 293.51 118.56C292.82 117.74 291.83 115.71 291.3 114.06C290.59 111.86 289.71 111.06 288 111.06C286.28 111.06 285.42 111.85 284.73 114.06C284.22 115.71 282.22 120.44 280.28 124.56C278.35 128.69 273.85 138.14 270.28 145.56C266.71 152.99 262.31 162.21 260.51 166.06C258.71 169.911 253.41 180.94 248.74 190.56C244.08 200.19 239.47 209.86 238.51 212.06C237.56 214.26 234.75 220.34 232.28 225.56C229.81 230.79 225.82 239.11 223.4 244.06C220.98 249.01 219 253.62 219 254.31C219 255 218.55 255.56 218 255.56C217.45 255.56 216.99 256.12 216.97 256.81C216.959 257.502 214.759 262.561 212.1 268.06C209.43 273.56 206.45 279.86 205.48 282.06C204.5 284.26 201.03 291.69 197.76 298.56L196.497 301.216C193.484 307.556 190.092 314.692 188.5 318.06C186.67 321.91 182.39 330.91 178.99 338.06C175.58 345.21 171.89 353.09 170.78 355.56C169.68 358.03 166.03 365.69 162.67 372.56C159.32 379.44 156.54 385.28 156.5 385.56C156.459 385.842 155.61 387.861 154.62 390.06L154.618 390.064C153.628 392.264 152.01 395.862 151.03 398.06C150.04 400.26 148.2 405.44 146.94 409.56C145.68 413.69 144.7 417.28 144.76 417.56C144.819 417.841 144.429 419.861 143.89 422.06C143.36 424.26 142.6 428.99 142.21 432.56C141.82 436.14 141.51 444.46 141.53 451.06C141.55 459.08 142.16 465.54 143.36 470.56C144.35 474.69 146.08 480.53 147.19 483.56C148.311 486.59 151.09 492.79 153.36 497.35C155.64 501.91 157.84 505.62 158.25 505.6C158.66 505.58 159.28 506.57 159.63 507.81C159.971 509.051 164.36 514.111 169.38 519.06C174.4 524.01 183 531.08 188.5 534.77C194 538.47 199.06 541.51 199.75 541.52C200.44 541.54 201.11 542.01 201.25 542.56C201.39 543.11 201.5 544 201.5 544.54C201.5 545.17 177.75 545.72 135.5 546.06C99.2 546.35 54.6197 546.24 36.4297 545.82C6.85025 545.14 3.17971 544.88 1.67969 543.31C0.749759 542.35 0.000116044 540.21 0 538.56C0 536.91 1.08021 532.97 2.41016 529.81C3.73013 526.65 6.98014 519.56 9.62012 514.06C12.2687 508.563 14.4673 503.845 14.5195 503.56C14.5695 503.28 19.8305 492.49 26.1904 479.56C32.5602 466.641 38.7697 453.811 40 451.06C41.23 448.31 46.95 436.39 52.71 424.56C58.4699 412.74 65.73 397.89 68.8301 391.56C71.9386 385.243 74.5074 379.845 74.5498 379.56C74.5998 379.28 78.5804 370.96 83.4004 361.06C88.2303 351.16 93.8904 339.46 95.9805 335.06C98.0804 330.66 103.49 319.41 108.01 310.06C112.53 300.71 118.53 288.34 121.34 282.56C124.148 276.793 126.478 271.844 126.51 271.56C126.55 271.29 130.1 263.86 134.42 255.06C138.74 246.26 144.27 234.79 146.73 229.56C149.18 224.34 156.48 209.26 162.96 196.06C169.43 182.86 176.32 168.69 178.28 164.56C180.23 160.44 186.76 146.94 192.8 134.56C198.84 122.191 204.78 109.811 206 107.06C207.22 104.31 212.17 93.9601 216.99 84.0601C221.81 74.1604 226.79 63.8105 228.07 61.0601C229.35 58.3113 230.439 55.8418 230.49 55.5601C230.54 55.2902 231.45 53.49 232.5 51.5601C233.549 49.6411 234.459 47.8415 234.51 47.5601C234.55 47.2901 237.1 41.89 240.17 35.5601C243.24 29.2403 246.79 21.5903 248.07 18.5601C249.34 15.5403 251.51 11.2602 252.88 9.06014C254.25 6.86029 256.49 4.05027 257.84 2.81014C260.29 0.570142 260.47 0.560142 326.5 0.560142L329.64 3.31014ZM1144.5 393.75C1167.94 394.03 1170.89 394.25 1174.5 396.02C1176.7 397.1 1183.06 402.5 1188.64 408.02C1195.35 414.67 1199.7 419.92 1201.52 423.56C1203.03 426.59 1204.96 431.09 1205.82 433.56C1207.12 437.34 1207.43 446.272 1207.74 489.56C1207.94 517.89 1207.86 542.07 1207.55 543.31C1207.01 545.52 1206.74 545.56 1176 545.56L1175.95 511.31C1175.92 492.471 1175.49 473.691 1175.01 469.56C1174.52 465.44 1173.64 458.91 1173.05 455.06C1172.46 451.21 1171.37 446.49 1170.62 444.56C1169.88 442.64 1166.4 438.07 1162.89 434.41C1159.37 430.75 1155.37 427.329 1154 426.799C1152.62 426.269 1147.22 425.26 1142 424.54C1134.62 423.53 1131.44 423.5 1127.75 424.4C1125.14 425.04 1121.87 425.56 1120.5 425.56C1119.12 425.56 1116.09 426.57 1113.75 427.81C1111.41 429.05 1106.57 432.91 1096.5 442.719L1095.78 479.39C1095.39 499.56 1095.02 516.74 1094.97 517.56C1094.91 518.392 1094.44 524.011 1093.91 530.06C1093.39 536.11 1092.81 541.96 1092.63 543.06C1092.33 544.96 1091.53 545.06 1060.5 545.06L1060.24 470.56C1060.1 429.59 1060.21 395.49 1060.49 394.79C1060.88 393.81 1065 393.58 1095.5 394.06L1095.75 401.31C1095.92 406.3 1096.39 408.56 1097.25 408.57C1097.94 408.58 1100.75 406.319 1103.5 403.549C1106.25 400.789 1110.75 397.38 1118.5 393.44L1144.5 393.75ZM1429.27 346.54C1441.05 346.53 1445.85 346.87 1446.77 347.79C1447.77 348.802 1448.03 369.351 1448 545.56L1412.5 545.06L1412.23 448.06C1412.07 394.715 1412.19 350.057 1412.49 348.81C1413.02 346.59 1413.26 346.56 1429.27 346.54ZM1952 481.56C1937.66 481.8 1930.8 482.139 1927.5 482.469C1924.2 482.799 1920.94 483.4 1920.25 483.81C1919.56 484.22 1913.68 484.9 1907.17 485.31C1898.97 485.83 1894.82 486.52 1893.63 487.56C1892.68 488.39 1891.94 488.61 1891.98 488.06C1892.02 487.51 1889.35 489.76 1886.06 493.06C1881.07 498.06 1880.06 499.64 1880.03 502.56C1880 504.49 1880.75 507.19 1881.68 508.56C1882.61 509.94 1884.42 512.07 1885.69 513.31C1886.96 514.55 1890.36 516.76 1893.25 518.24C1897.35 520.33 1900.37 521.01 1907 521.37C1913.71 521.73 1916.97 521.39 1922.5 519.73C1926.35 518.58 1930.83 517.28 1932.46 516.85C1934.08 516.41 1937.8 513.7 1940.71 510.81C1943.62 507.92 1946.45 504.44 1947 503.06C1947.55 501.69 1948.23 499.32 1948.52 497.81C1948.8 496.3 1949.42 494.61 1949.88 494.06C1950.35 493.51 1950.8 492.39 1950.88 491.56C1950.96 490.74 1951.25 488.15 1951.52 485.81L1952 481.56ZM1543.5 423.18C1542.4 422.93 1539.93 423.1 1538 423.57C1536.07 424.03 1530.45 424.87 1525.5 425.42L1516.5 426.43C1506.06 436.99 1502.02 442.09 1500.79 444.56C1499.55 447.04 1498.65 449.62 1498.77 450.31C1498.9 451 1498.44 452.31 1497.75 453.23C1496.99 454.24 1496.35 459.24 1496.11 465.98C1495.81 474.75 1496.2 479.25 1497.97 487.56C1499.2 493.34 1500.83 499.07 1501.6 500.31C1502.37 501.55 1505.14 504.74 1507.75 507.41C1510.36 510.08 1514.3 513.17 1516.5 514.29C1518.7 515.4 1524.55 517.56 1529.5 519.07C1537.22 521.45 1539.07 521.69 1542.5 520.77C1544.7 520.19 1549.43 518.929 1553 517.969C1556.57 517.009 1559.72 515.939 1560 515.589C1560.28 515.239 1562.07 514.23 1564 513.35C1565.93 512.47 1569.02 510.25 1570.88 508.41C1572.73 506.57 1575.19 503.04 1576.33 500.56C1577.48 498.091 1578.44 495.842 1578.47 495.56C1578.5 495.29 1578.83 494.61 1579.19 494.06C1579.55 493.51 1580.11 491.71 1580.44 490.06C1580.77 488.41 1581.42 486.61 1581.88 486.06C1582.35 485.51 1582.83 484.39 1582.96 483.56C1583.08 482.74 1583.38 477.11 1583.61 471.06C1583.94 462.4 1583.7 459.42 1582.47 457.06C1581.6 455.41 1580.47 452.15 1579.95 449.81C1579.43 447.47 1577.57 443.42 1575.82 440.81C1574.08 438.2 1571.46 434.94 1570 433.56L1569.91 433.474C1568.45 432.102 1566.23 430.024 1564.93 428.83C1563.23 427.26 1559.96 426.15 1554 425.12C1549.32 424.31 1544.6 423.44 1543.5 423.18ZM1320 424.969C1314.78 424.139 1308.37 423.56 1305.76 423.69C1303.16 423.81 1300.91 424.07 1300.76 424.25C1300.62 424.44 1297.13 425.039 1293 425.589C1287.29 426.349 1284.67 427.25 1282 429.35C1280.08 430.87 1277.26 432.889 1275.75 433.839C1274.24 434.789 1271.13 438.37 1268.84 441.81C1266.54 445.25 1264.09 449.64 1263.39 451.56C1262.69 453.49 1262.31 455.4 1262.55 455.81C1262.8 456.22 1262.36 457.57 1261.57 458.81C1260.52 460.46 1260.22 463.61 1260.43 470.56C1260.6 475.79 1261.43 482.09 1262.29 484.56C1263.14 487.04 1264.1 490.75 1264.42 492.81C1264.77 495.1 1266.17 497.73 1268 499.56C1269.65 501.21 1271 502.9 1271 503.31C1270.99 503.721 1273.36 505.91 1276.25 508.179C1279.14 510.449 1283.19 513.259 1285.25 514.429C1287.31 515.599 1292.04 517.289 1295.75 518.179C1299.46 519.069 1305.2 519.98 1308.5 520.21C1311.8 520.44 1314.95 520.21 1315.5 519.7C1316.05 519.2 1318.97 518.46 1322 518.07C1325.03 517.68 1330.2 516.1 1333.5 514.56C1336.8 513.02 1341.77 509.57 1344.55 506.91C1347.51 504.07 1350.91 499.37 1352.77 495.56C1354.51 491.99 1355.94 487.94 1355.94 486.56C1355.95 485.19 1356.64 482.37 1357.48 480.31C1358.31 478.25 1359 474.31 1359 471.56C1359 468.81 1358.57 465.77 1358.05 464.81C1357.53 463.85 1356.63 460.25 1356.05 456.81C1355.38 452.8 1353.81 448.68 1351.67 445.31C1349.84 442.42 1346.57 438.239 1344.42 436.009C1342.26 433.779 1338.03 430.73 1335 429.23C1331.67 427.57 1325.74 425.889 1320 424.969ZM1701.15 421.719C1697.93 421.819 1694.44 422.43 1693.4 423.08C1692.35 423.74 1689.03 424.88 1686 425.62C1681.61 426.69 1679.32 428.08 1674.66 432.509C1671.44 435.559 1667.78 440.09 1666.53 442.56C1664.38 446.8 1664.26 448.14 1664.37 465.85C1664.45 477.789 1664.88 484.89 1665.56 485.35C1666.14 485.74 1667.26 487.63 1668.06 489.549C1668.85 491.469 1672.2 495.649 1675.5 498.839C1678.8 502.039 1682.85 505.03 1684.5 505.49C1686.15 505.96 1689.97 507.089 1693 508.009C1696.88 509.179 1700.57 509.52 1705.5 509.16C1709.35 508.88 1713.29 508.63 1714.25 508.61C1715.21 508.58 1715.99 508.22 1715.98 507.81C1715.97 507.4 1718.45 506.5 1721.48 505.81C1725.82 504.83 1727.96 503.6 1731.5 500.06C1733.97 497.59 1736.73 494.1 1737.61 492.31C1738.5 490.52 1739.47 486.81 1739.77 484.06C1740.07 481.31 1740.92 478.16 1741.66 477.06C1742.4 475.96 1743.3 471.91 1743.66 468.06C1744.17 462.58 1743.95 460.3 1742.65 457.56C1741.73 455.64 1740.71 452.04 1740.38 449.56C1740.05 447.09 1739.09 443.94 1738.25 442.56C1737.4 441.19 1733.74 437.12 1730.11 433.54C1724.9 428.4 1722.44 426.73 1718.5 425.68C1715.75 424.94 1712.04 423.72 1710.25 422.95C1708.46 422.19 1704.37 421.629 1701.15 421.719ZM812.79 421.839C804.93 421.719 797.83 421.87 797 422.16C796.17 422.46 793.21 423.89 790.4 425.339C787.6 426.789 785.24 428.34 785.15 428.77C785.07 429.21 784.21 429.58 783.25 429.6C782.29 429.62 780.48 430.86 779.24 432.35C778 433.84 776.71 435.96 776.38 437.06C776.04 438.16 775.2 439.74 774.51 440.56C773.82 441.39 772.75 443.75 772.13 445.81C771.51 447.87 770.55 449.56 770 449.56C769.45 449.56 769 450.46 769 451.56C769 452.82 769.83 453.74 771.25 454.04C772.49 454.31 778.67 454.98 785 455.54C791.33 456.1 808.09 456.55 822.25 456.56C844.248 456.56 848.069 456.34 848.5 455.06C848.78 454.24 848.6 451.2 848.11 448.31C847.61 445.42 845.75 440.59 843.97 437.56C842.18 434.53 839.53 430.94 838.06 429.56C836.59 428.19 833.84 426.41 831.95 425.62C830.05 424.82 828.18 423.7 827.79 423.12C827.35 422.47 821.46 421.969 812.79 421.839ZM1796.5 348.79C1797.08 346.52 1797.12 346.51 1831.5 347.06V377.06H1796.5L1796.21 364.06C1796.05 356.91 1796.18 350.04 1796.5 348.79ZM1704.82 0.0601417C1721.88 0.060145 1736.01 0.290144 1736.22 0.560142C1736.44 0.859422 1736.37 62.272 1736.06 137.06C1735.54 264.05 1735.38 273.28 1733.75 276.31C1732.79 278.1 1732.01 280.12 1732.01 280.81C1732.02 281.501 1730.45 285.321 1728.51 289.31C1726.58 293.3 1725.05 296.67 1725.12 296.81C1725.18 296.953 1724.29 298.642 1723.13 300.56C1721.97 302.49 1720.53 305.19 1719.91 306.56C1719.3 307.94 1716.95 311.76 1714.69 315.06C1712.42 318.36 1709.88 321.96 1709.04 323.06C1708.19 324.161 1703.89 328.66 1699.48 333.06C1695.07 337.46 1689.97 342.19 1688.15 343.56C1686.32 344.94 1682.73 347.289 1680.17 348.799C1677.6 350.309 1674.6 351.95 1673.5 352.44C1672.64 352.833 1670.23 353.905 1667.63 355.06L1665.5 356.009C1662.2 357.469 1658.6 359.06 1657.5 359.54C1656.4 360.02 1654.15 360.71 1652.5 361.08C1650.85 361.45 1648.6 361.96 1647.5 362.21C1646.4 362.47 1642.35 363.11 1638.5 363.64C1634.65 364.17 1629.47 364.65 1627 364.71C1624.52 364.77 1587.06 364.99 1465 365.56L1464.92 340.31C1464.87 326.421 1464.9 312.361 1464.97 309.06C1465.05 305.76 1465.52 301.49 1466.03 299.56C1466.53 297.64 1467.52 296 1468.22 295.929C1468.92 295.859 1501.22 295.48 1540 295.1C1578.77 294.71 1616.57 294 1624 293.52C1631.43 293.04 1638.62 292.459 1640 292.219C1641.37 291.979 1644.07 291 1646 290.03C1647.93 289.07 1651.77 285.98 1654.54 283.17C1657.31 280.36 1661.21 275.14 1663.21 271.56C1665.21 267.99 1667.89 261.579 1669.17 257.339C1670.45 253.09 1671.27 249.399 1671 249.129C1670.71 248.869 1639.44 248.18 1601.5 247.6C1563.55 247.03 1528.68 246.11 1524 245.58C1519.32 245.04 1512.57 243.65 1509 242.48C1505.43 241.31 1497.77 237.88 1492 234.87C1486.22 231.85 1481.27 229.07 1481 228.7C1480.72 228.32 1479.15 227.16 1477.5 226.12C1475.85 225.07 1472.55 222.61 1470.18 220.64C1467.8 218.67 1462.96 214.25 1459.43 210.81C1455.89 207.371 1453.01 204.222 1453.02 203.81C1453.03 203.4 1452.02 201.94 1450.77 200.58C1449.52 199.21 1446.59 195.28 1444.25 191.83C1441.91 188.381 1439.99 185.222 1439.97 184.81C1439.96 184.4 1438.18 180.46 1436.02 176.06C1433.86 171.66 1431.63 165.36 1431.06 162.06C1430.49 158.76 1429.57 149.76 1429.02 142.06C1428.47 134.36 1427.94 99.45 1427.84 64.4801C1427.75 29.5156 1427.93 0.719084 1428.25 0.480064C1428.57 0.250064 1443.61 0.0601417 1494.5 0.0601417L1494.77 9.56014C1494.92 14.7914 1495.39 47.1927 1496.57 144.06L1499.29 149.06C1500.79 151.81 1502.58 154.93 1503.26 155.99C1503.94 157.05 1506.75 160.24 1509.5 163.07C1512.25 165.91 1515.85 169.14 1517.5 170.25C1519.15 171.37 1523.87 173.35 1535.5 177.04L1671.5 177.06L1671.77 89.0601C1671.93 39.7151 1672.44 0.863433 1672.93 0.560142C1673.42 0.290142 1687.77 0.0601417 1704.82 0.0601417ZM1048.63 0.00936045C1080.63 0.0793594 1095.1 0.45962 1096.5 1.24959C1097.6 1.86959 1106.37 10.5996 1116 20.6695C1125.62 30.7295 1149.59 55.0694 1169.25 74.7594C1188.91 94.4494 1205.56 110.56 1206.25 110.57C1206.94 110.58 1217.42 100.34 1229.53 87.8199C1241.65 75.2999 1253.8 62.6097 1256.53 59.6197C1259.27 56.6295 1268.95 46.4996 1278.06 37.1197C1287.17 27.7397 1298.87 15.6595 1313.5 0.499595L1355 0.589439C1377.82 0.639438 1398.3 1.00952 1404.5 2.16952L1387.5 19.5797C1378.15 29.1497 1364.42 43.1197 1357 50.6197C1349.57 58.1197 1334.72 73.2098 1323.98 84.1598C1313.25 95.0998 1294.56 114.19 1282.45 126.56C1270.35 138.94 1259.21 150.64 1257.7 152.56C1255.48 155.4 1255.1 156.63 1255.71 159.06C1256.2 161.051 1261.47 167.121 1271.32 177.06C1279.5 185.31 1297.29 203.31 1310.85 217.06C1324.41 230.82 1350.46 257.25 1368.75 275.81C1387.04 294.37 1402 310.23 1402 311.06C1402 312.37 1396.47 312.56 1358.25 312.57C1318.48 312.57 1314.27 312.42 1312 310.85C1310.62 309.91 1303.82 303.49 1296.88 296.6C1289.95 289.7 1275.55 275.509 1264.88 265.049C1254.22 254.599 1236.61 237.389 1225.75 226.799C1214.89 216.219 1205.61 207.56 1205.14 207.56C1204.66 207.573 1180.47 231.137 1151.39 259.929C1106.72 304.159 1097.96 312.4 1095 312.94C1093.07 313.29 1072.49 313.92 1049.25 314.32C1012.03 314.97 1007 314.88 1006.98 313.56C1006.97 312.74 1010.91 308.01 1015.74 303.06C1020.57 298.11 1042.75 275.39 1065.05 252.56C1087.34 229.73 1107.81 208.62 1110.54 205.65C1113.27 202.67 1123.43 192.09 1133.13 182.15C1142.82 172.2 1152.16 162.37 1157 156.56L1079.5 79.0601C1036.88 36.4496 1002.19 1.20534 1002.38 0.730064C1002.59 0.270064 1023.4 -0.0606381 1048.63 0.00936045ZM736 3.06014C740.35 2.01014 756.6 1.76975 813.5 1.90975C879.16 2.06975 886.12 2.23949 892.5 3.87948C896.35 4.86948 901.3 6.54018 903.5 7.60018C905.7 8.66014 908.06 9.5394 908.75 9.5494C909.44 9.5494 912.36 10.7601 915.25 12.2301C918.14 13.7001 923.42 16.68 927 18.8599C930.569 21.0395 933.719 23.1488 934 23.5494C934.28 23.9594 935.51 24.5793 936.75 24.9293C937.99 25.2693 938.98 25.9001 938.96 26.3101C938.941 26.7207 940.621 28.23 942.71 29.6695C944.79 31.0995 949.2 34.9398 952.5 38.1998C955.8 41.4698 960.3 46.3702 962.5 49.1002C964.7 51.8301 966.84 54.1701 967.25 54.3101C967.66 54.4503 968 55.2402 968 56.0601C968 56.8903 969.121 58.5703 970.48 59.8101C971.85 61.0501 972.97 62.6202 972.98 63.3101C972.991 64.0002 973.61 65.1203 974.35 65.8101C975.1 66.5001 977.26 69.9901 979.16 73.5601C981.06 77.1402 983.77 82.9903 985.19 86.5601C986.6 90.1403 988.74 96.8904 989.94 101.56C991.59 108.01 992.33 115.011 993 130.56C993.49 141.841 994.19 185.041 994.57 226.56C995.07 281.49 994.95 303.22 994.13 306.31C993.21 309.79 992.5 310.65 990.25 311.04C988.74 311.3 980.07 311.97 971 312.52C961.92 313.07 948.65 313.65 928.5 314.06L927.83 223.56C927.44 170.831 926.71 128.782 926.08 122.81C925.49 117.17 924.31 111.1 923.47 109.31C922.63 107.52 921.311 104.94 920.521 103.56C919.74 102.19 917.39 99.0599 915.3 96.6099C913.21 94.16 909.29 90.11 906.58 87.6099C903.88 85.1103 900.951 82.3905 900.07 81.5601C899.19 80.7402 897.12 79.1802 895.48 78.1002C893.84 77.0302 890.03 74.82 881.5 70.2301L840.5 69.4195C817.95 68.9695 792.3 68.8397 783.5 69.1197C774.7 69.3997 763.9 69.8597 759.5 70.1197C755.1 70.3897 748.8 71.32 745.5 72.19C742.2 73.05 737.25 74.9101 734.5 76.3101C731.75 77.7101 727.7 80.0095 725.5 81.4195C723.3 82.8195 718.78 86.7001 715.46 90.0201C712.14 93.3401 708.3 97.6402 706.94 99.5601C705.58 101.49 703.51 105.09 702.36 107.56C701.2 110.04 699.6 113.41 698.79 115.06C697.99 116.71 696.98 119.64 696.55 121.56C696.12 123.49 695.49 125.51 695.16 126.06C694.83 126.61 694.45 127.74 694.31 128.56C694.169 129.391 693.63 132.311 693.09 135.06C692.56 137.811 692.24 148.611 692.39 159.06C692.61 174.9 693.02 179.47 694.87 186.56C696.09 191.24 697.75 196.52 698.55 198.31C699.35 200.1 700 202.01 700 202.56C700 203.11 700.56 204.57 701.25 205.81C701.94 207.05 702.72 208.29 703 208.56C703.28 208.841 704.51 210.521 705.75 212.31C706.99 214.1 708 215.79 708 216.06C708.001 216.341 708.79 217.53 709.75 218.71C710.71 219.89 713.75 223.1 716.5 225.83C719.25 228.56 723.53 232.149 726 233.799C728.47 235.449 732.07 237.59 734 238.56C735.92 239.52 740.87 241.07 745 241.99C749.12 242.92 757.9 244.089 764.5 244.589C771.1 245.099 802.49 245.52 892 245.56L891.5 314.06L849.5 314.339C826.4 314.489 793.78 314.16 777 313.6C758.5 312.97 743.35 311.98 738.5 311.07C734.1 310.24 727.57 308.61 724 307.44C720.42 306.27 714.8 304.03 711.5 302.45C708.2 300.88 704.6 299.02 703.5 298.32C702.4 297.63 698.67 295.26 695.21 293.06C691.751 290.861 688.942 288.721 688.96 288.31C688.98 287.9 688.1 287.34 687 287.06C685.9 286.79 678.25 279.81 670 271.56C661.751 263.311 655.002 255.892 655 255.06C655 254.24 654.63 253.45 654.18 253.31C653.729 253.169 651.37 250.14 648.95 246.56C646.52 242.99 643.74 238.6 642.76 236.81C641.79 235.02 640.05 230.97 638.9 227.81C637.74 224.65 635.771 218.69 634.521 214.56C633.271 210.44 631.46 202.11 630.5 196.06C629.26 188.28 628.61 176.72 628.26 156.56C627.9 135.881 628.12 126.14 629.05 121.06C629.75 117.211 630.4 113.391 630.49 112.56C630.58 111.74 631.45 108.36 632.44 105.06C633.42 101.761 634.33 98.6112 634.46 98.0601C634.59 97.5102 635.06 96.1601 635.51 95.0601C635.95 93.9602 637.63 89.6901 639.24 85.5601C640.85 81.4403 643.35 75.8103 644.8 73.0601C646.25 70.3102 649.21 65.3601 651.38 62.0601C653.55 58.7602 657.17 53.8199 659.42 51.0699C661.66 48.33 665.3 44.2702 667.5 42.0601C669.7 39.8402 674.21 35.7896 677.51 33.0396C680.82 30.2997 684.2 27.4898 685.01 26.7896C685.83 26.0896 689.2 23.6695 692.5 21.4195C695.8 19.1695 702.66 15.36 707.75 12.94C712.84 10.53 717.69 8.56014 718.54 8.56014C719.38 8.56012 720.28 8.10999 720.54 7.56014C720.79 7.01014 722.91 6.02948 725.25 5.37948C727.59 4.73953 729.72 4.24948 730 4.2994C730.28 4.3494 732.97 3.79013 736 3.06014ZM1911 0.629478C1939.87 0.239478 1968 -0.0498583 1983.5 0.0601417L1983.75 33.8101C1983.94 60.0998 1983.72 67.6501 1982.75 67.9801C1982.06 68.2201 1956.52 68.8197 1926 69.3297C1871.39 70.2397 1870.4 70.2995 1864.5 72.5894C1861.2 73.8694 1857.6 75.7393 1856.5 76.7594C1855.4 77.7694 1854.16 78.5897 1853.75 78.5797C1853.34 78.5697 1851.75 79.8002 1850.23 81.3101C1848.71 82.8201 1846.1 85.8601 1844.44 88.0601C1842.78 90.2601 1840.43 94.0901 1839.21 96.5601C1837.99 99.0402 1836.54 103.54 1835.97 106.56C1835.41 109.591 1834.53 121.061 1834.02 132.06C1833.51 143.061 1832.84 186.261 1832.52 228.06C1832.2 269.86 1831.73 306.2 1831 313.56L1799.25 312.91C1778.04 312.47 1767.23 311.89 1766.7 311.16C1766.26 310.55 1766.03 267.99 1766.19 216.56C1766.35 165.142 1766.78 119.913 1767.15 116.06C1767.52 112.21 1768.09 105.69 1768.4 101.56C1768.72 97.4402 1769.82 90.2401 1770.86 85.5601C1771.89 80.8903 1774.29 73.9102 1776.18 70.0601C1778.07 66.2103 1781.12 60.3602 1782.96 57.0601C1784.8 53.7601 1787.48 49.4994 1788.91 47.5894C1790.33 45.6894 1793.52 41.8896 1796 39.1598C1798.47 36.4298 1802.97 31.7594 1806 28.7994C1809.02 25.8295 1813.26 22.2101 1815.41 20.7301C1817.56 19.2601 1820.48 17.2797 1821.91 16.3297C1823.33 15.3796 1828.32 12.6199 1833 10.19C1837.68 7.77003 1843.52 5.21988 1846 4.52987C1848.47 3.83988 1852.3 2.84015 1854.5 2.31014C1856.7 1.78014 1882.12 1.02948 1911 0.629478Z" fill="#4D308C"/>
</svg>
